<?xml version="1.0" encoding="UTF-8" standalone="no"?>
<!DOCTYPE svg PUBLIC "-//W3C//DTD SVG 1.1//EN"
 "http://www.w3.org/Graphics/SVG/1.1/DTD/svg11.dtd">
<!-- Generated by graphviz version 13.1.0 (20250701.0955)
 -->
<!-- Title: model Pages: 1 -->
<svg width="126pt" height="864pt"
 viewBox="0.00 0.00 126.00 864.00" xmlns="http://www.w3.org/2000/svg" xmlns:xlink="http://www.w3.org/1999/xlink">
<g id="graph0" class="graph" transform="scale(0.575808 0.575808) rotate(0) translate(4 1496.5)">
<title>model</title>
<polygon fill="white" stroke="none" points="-4,4 -4,-1496.5 214.75,-1496.5 214.75,4 -4,4"/>
<!-- 0 -->
<g id="node1" class="node">
<title>0</title>
<polygon fill="lightyellow" stroke="none" points="166.75,-1492.5 44,-1492.5 44,-1457 166.75,-1457 166.75,-1492.5"/>
<polygon fill="none" stroke="black" points="44,-1457 44,-1492.5 105.75,-1492.5 105.75,-1457 44,-1457"/>
<text xml:space="preserve" text-anchor="start" x="49" y="-1478" font-family="Linux libertine" font-size="10.00">input&#45;tensor</text>
<text xml:space="preserve" text-anchor="start" x="58.38" y="-1465.25" font-family="Linux libertine" font-size="10.00">depth:0</text>
<polygon fill="none" stroke="black" points="105.75,-1457 105.75,-1492.5 166.75,-1492.5 166.75,-1457 105.75,-1457"/>
<text xml:space="preserve" text-anchor="start" x="110.75" y="-1471.62" font-family="Linux libertine" font-size="10.00">(1, 1, 6000)</text>
</g>
<!-- 1 -->
<g id="node2" class="node">
<title>1</title>
<polygon fill="#c1ffc1" stroke="none" points="183.38,-1421 27.38,-1421 27.38,-1375.5 183.38,-1375.5 183.38,-1421"/>
<polygon fill="none" stroke="black" points="27.38,-1375.5 27.38,-1421 70.38,-1421 70.38,-1375.5 27.38,-1375.5"/>
<text xml:space="preserve" text-anchor="start" x="32.75" y="-1401.5" font-family="Linux libertine" font-size="10.00">Conv1d</text>
<text xml:space="preserve" text-anchor="start" x="32.38" y="-1388.75" font-family="Linux libertine" font-size="10.00">depth:1</text>
<polygon fill="none" stroke="black" points="70.38,-1398.25 70.38,-1421 114.12,-1421 114.12,-1398.25 70.38,-1398.25"/>
<text xml:space="preserve" text-anchor="start" x="79.88" y="-1406.5" font-family="Linux libertine" font-size="10.00">input:</text>
<polygon fill="none" stroke="black" points="114.12,-1398.25 114.12,-1421 183.38,-1421 183.38,-1398.25 114.12,-1398.25"/>
<text xml:space="preserve" text-anchor="start" x="121.75" y="-1406.5" font-family="Linux libertine" font-size="10.00">(1, 1, 6000) </text>
<polygon fill="none" stroke="black" points="70.38,-1375.5 70.38,-1398.25 114.12,-1398.25 114.12,-1375.5 70.38,-1375.5"/>
<text xml:space="preserve" text-anchor="start" x="75.38" y="-1383.75" font-family="Linux libertine" font-size="10.00">output: </text>
<polygon fill="none" stroke="black" points="114.12,-1375.5 114.12,-1398.25 183.38,-1398.25 183.38,-1375.5 114.12,-1375.5"/>
<text xml:space="preserve" text-anchor="start" x="119.12" y="-1383.75" font-family="Linux libertine" font-size="10.00">(1, 32, 6000) </text>
</g>
<!-- 0&#45;&gt;1 -->
<g id="edge1" class="edge">
<title>0&#45;&gt;1</title>
<path fill="none" stroke="black" d="M105.38,-1457.22C105.38,-1449.85 105.38,-1440.89 105.38,-1432.25"/>
<polygon fill="black" stroke="black" points="108.88,-1432.35 105.38,-1422.35 101.88,-1432.35 108.88,-1432.35"/>
</g>
<!-- 2 -->
<g id="node3" class="node">
<title>2</title>
<polygon fill="#c1ffc1" stroke="none" points="196.12,-1339.5 14.62,-1339.5 14.62,-1294 196.12,-1294 196.12,-1339.5"/>
<polygon fill="none" stroke="black" points="14.62,-1294 14.62,-1339.5 83.12,-1339.5 83.12,-1294 14.62,-1294"/>
<text xml:space="preserve" text-anchor="start" x="19.62" y="-1320" font-family="Linux libertine" font-size="10.00">BatchNorm1d</text>
<text xml:space="preserve" text-anchor="start" x="32.38" y="-1307.25" font-family="Linux libertine" font-size="10.00">depth:1</text>
<polygon fill="none" stroke="black" points="83.12,-1316.75 83.12,-1339.5 126.88,-1339.5 126.88,-1316.75 83.12,-1316.75"/>
<text xml:space="preserve" text-anchor="start" x="92.62" y="-1325" font-family="Linux libertine" font-size="10.00">input:</text>
<polygon fill="none" stroke="black" points="126.88,-1316.75 126.88,-1339.5 196.12,-1339.5 196.12,-1316.75 126.88,-1316.75"/>
<text xml:space="preserve" text-anchor="start" x="131.88" y="-1325" font-family="Linux libertine" font-size="10.00">(1, 32, 6000) </text>
<polygon fill="none" stroke="black" points="83.12,-1294 83.12,-1316.75 126.88,-1316.75 126.88,-1294 83.12,-1294"/>
<text xml:space="preserve" text-anchor="start" x="88.12" y="-1302.25" font-family="Linux libertine" font-size="10.00">output: </text>
<polygon fill="none" stroke="black" points="126.88,-1294 126.88,-1316.75 196.12,-1316.75 196.12,-1294 126.88,-1294"/>
<text xml:space="preserve" text-anchor="start" x="131.88" y="-1302.25" font-family="Linux libertine" font-size="10.00">(1, 32, 6000) </text>
</g>
<!-- 1&#45;&gt;2 -->
<g id="edge2" class="edge">
<title>1&#45;&gt;2</title>
<path fill="none" stroke="black" d="M105.38,-1375.53C105.38,-1367.9 105.38,-1359.15 105.38,-1350.81"/>
<polygon fill="black" stroke="black" points="108.88,-1350.96 105.38,-1340.96 101.88,-1350.96 108.88,-1350.96"/>
</g>
<!-- 3 -->
<g id="node4" class="node">
<title>3</title>
<polygon fill="aliceblue" stroke="none" points="183.38,-1258 27.38,-1258 27.38,-1212.5 183.38,-1212.5 183.38,-1258"/>
<polygon fill="none" stroke="black" points="27.38,-1212.5 27.38,-1258 70.38,-1258 70.38,-1212.5 27.38,-1212.5"/>
<text xml:space="preserve" text-anchor="start" x="40.62" y="-1238.5" font-family="Linux libertine" font-size="10.00">relu</text>
<text xml:space="preserve" text-anchor="start" x="32.38" y="-1225.75" font-family="Linux libertine" font-size="10.00">depth:1</text>
<polygon fill="none" stroke="black" points="70.38,-1235.25 70.38,-1258 114.12,-1258 114.12,-1235.25 70.38,-1235.25"/>
<text xml:space="preserve" text-anchor="start" x="79.88" y="-1243.5" font-family="Linux libertine" font-size="10.00">input:</text>
<polygon fill="none" stroke="black" points="114.12,-1235.25 114.12,-1258 183.38,-1258 183.38,-1235.25 114.12,-1235.25"/>
<text xml:space="preserve" text-anchor="start" x="119.12" y="-1243.5" font-family="Linux libertine" font-size="10.00">(1, 32, 6000) </text>
<polygon fill="none" stroke="black" points="70.38,-1212.5 70.38,-1235.25 114.12,-1235.25 114.12,-1212.5 70.38,-1212.5"/>
<text xml:space="preserve" text-anchor="start" x="75.38" y="-1220.75" font-family="Linux libertine" font-size="10.00">output: </text>
<polygon fill="none" stroke="black" points="114.12,-1212.5 114.12,-1235.25 183.38,-1235.25 183.38,-1212.5 114.12,-1212.5"/>
<text xml:space="preserve" text-anchor="start" x="119.12" y="-1220.75" font-family="Linux libertine" font-size="10.00">(1, 32, 6000) </text>
</g>
<!-- 2&#45;&gt;3 -->
<g id="edge3" class="edge">
<title>2&#45;&gt;3</title>
<path fill="none" stroke="black" d="M105.38,-1294.03C105.38,-1286.4 105.38,-1277.65 105.38,-1269.31"/>
<polygon fill="black" stroke="black" points="108.88,-1269.46 105.38,-1259.46 101.88,-1269.46 108.88,-1269.46"/>
</g>
<!-- 4 -->
<g id="node5" class="node">
<title>4</title>
<polygon fill="#c1ffc1" stroke="none" points="190.12,-1176.5 20.62,-1176.5 20.62,-1131 190.12,-1131 190.12,-1176.5"/>
<polygon fill="none" stroke="black" points="20.62,-1131 20.62,-1176.5 77.12,-1176.5 77.12,-1131 20.62,-1131"/>
<text xml:space="preserve" text-anchor="start" x="25.62" y="-1157" font-family="Linux libertine" font-size="10.00">MaxPool1d</text>
<text xml:space="preserve" text-anchor="start" x="32.38" y="-1144.25" font-family="Linux libertine" font-size="10.00">depth:1</text>
<polygon fill="none" stroke="black" points="77.12,-1153.75 77.12,-1176.5 120.88,-1176.5 120.88,-1153.75 77.12,-1153.75"/>
<text xml:space="preserve" text-anchor="start" x="86.62" y="-1162" font-family="Linux libertine" font-size="10.00">input:</text>
<polygon fill="none" stroke="black" points="120.88,-1153.75 120.88,-1176.5 190.12,-1176.5 190.12,-1153.75 120.88,-1153.75"/>
<text xml:space="preserve" text-anchor="start" x="125.88" y="-1162" font-family="Linux libertine" font-size="10.00">(1, 32, 6000) </text>
<polygon fill="none" stroke="black" points="77.12,-1131 77.12,-1153.75 120.88,-1153.75 120.88,-1131 77.12,-1131"/>
<text xml:space="preserve" text-anchor="start" x="82.12" y="-1139.25" font-family="Linux libertine" font-size="10.00">output: </text>
<polygon fill="none" stroke="black" points="120.88,-1131 120.88,-1153.75 190.12,-1153.75 190.12,-1131 120.88,-1131"/>
<text xml:space="preserve" text-anchor="start" x="125.88" y="-1139.25" font-family="Linux libertine" font-size="10.00">(1, 32, 3000) </text>
</g>
<!-- 3&#45;&gt;4 -->
<g id="edge4" class="edge">
<title>3&#45;&gt;4</title>
<path fill="none" stroke="black" d="M105.38,-1212.53C105.38,-1204.9 105.38,-1196.15 105.38,-1187.81"/>
<polygon fill="black" stroke="black" points="108.88,-1187.96 105.38,-1177.96 101.88,-1187.96 108.88,-1187.96"/>
</g>
<!-- 5 -->
<g id="node6" class="node">
<title>5</title>
<polygon fill="#c1ffc1" stroke="none" points="183.38,-1095 27.38,-1095 27.38,-1049.5 183.38,-1049.5 183.38,-1095"/>
<polygon fill="none" stroke="black" points="27.38,-1049.5 27.38,-1095 70.38,-1095 70.38,-1049.5 27.38,-1049.5"/>
<text xml:space="preserve" text-anchor="start" x="32.75" y="-1075.5" font-family="Linux libertine" font-size="10.00">Conv1d</text>
<text xml:space="preserve" text-anchor="start" x="32.38" y="-1062.75" font-family="Linux libertine" font-size="10.00">depth:1</text>
<polygon fill="none" stroke="black" points="70.38,-1072.25 70.38,-1095 114.12,-1095 114.12,-1072.25 70.38,-1072.25"/>
<text xml:space="preserve" text-anchor="start" x="79.88" y="-1080.5" font-family="Linux libertine" font-size="10.00">input:</text>
<polygon fill="none" stroke="black" points="114.12,-1072.25 114.12,-1095 183.38,-1095 183.38,-1072.25 114.12,-1072.25"/>
<text xml:space="preserve" text-anchor="start" x="119.12" y="-1080.5" font-family="Linux libertine" font-size="10.00">(1, 32, 3000) </text>
<polygon fill="none" stroke="black" points="70.38,-1049.5 70.38,-1072.25 114.12,-1072.25 114.12,-1049.5 70.38,-1049.5"/>
<text xml:space="preserve" text-anchor="start" x="75.38" y="-1057.75" font-family="Linux libertine" font-size="10.00">output: </text>
<polygon fill="none" stroke="black" points="114.12,-1049.5 114.12,-1072.25 183.38,-1072.25 183.38,-1049.5 114.12,-1049.5"/>
<text xml:space="preserve" text-anchor="start" x="119.12" y="-1057.75" font-family="Linux libertine" font-size="10.00">(1, 64, 3000) </text>
</g>
<!-- 4&#45;&gt;5 -->
<g id="edge5" class="edge">
<title>4&#45;&gt;5</title>
<path fill="none" stroke="black" d="M105.38,-1131.03C105.38,-1123.4 105.38,-1114.65 105.38,-1106.31"/>
<polygon fill="black" stroke="black" points="108.88,-1106.46 105.38,-1096.46 101.88,-1106.46 108.88,-1106.46"/>
</g>
<!-- 6 -->
<g id="node7" class="node">
<title>6</title>
<polygon fill="#c1ffc1" stroke="none" points="196.12,-1013.5 14.62,-1013.5 14.62,-968 196.12,-968 196.12,-1013.5"/>
<polygon fill="none" stroke="black" points="14.62,-968 14.62,-1013.5 83.12,-1013.5 83.12,-968 14.62,-968"/>
<text xml:space="preserve" text-anchor="start" x="19.62" y="-994" font-family="Linux libertine" font-size="10.00">BatchNorm1d</text>
<text xml:space="preserve" text-anchor="start" x="32.38" y="-981.25" font-family="Linux libertine" font-size="10.00">depth:1</text>
<polygon fill="none" stroke="black" points="83.12,-990.75 83.12,-1013.5 126.88,-1013.5 126.88,-990.75 83.12,-990.75"/>
<text xml:space="preserve" text-anchor="start" x="92.62" y="-999" font-family="Linux libertine" font-size="10.00">input:</text>
<polygon fill="none" stroke="black" points="126.88,-990.75 126.88,-1013.5 196.12,-1013.5 196.12,-990.75 126.88,-990.75"/>
<text xml:space="preserve" text-anchor="start" x="131.88" y="-999" font-family="Linux libertine" font-size="10.00">(1, 64, 3000) </text>
<polygon fill="none" stroke="black" points="83.12,-968 83.12,-990.75 126.88,-990.75 126.88,-968 83.12,-968"/>
<text xml:space="preserve" text-anchor="start" x="88.12" y="-976.25" font-family="Linux libertine" font-size="10.00">output: </text>
<polygon fill="none" stroke="black" points="126.88,-968 126.88,-990.75 196.12,-990.75 196.12,-968 126.88,-968"/>
<text xml:space="preserve" text-anchor="start" x="131.88" y="-976.25" font-family="Linux libertine" font-size="10.00">(1, 64, 3000) </text>
</g>
<!-- 5&#45;&gt;6 -->
<g id="edge6" class="edge">
<title>5&#45;&gt;6</title>
<path fill="none" stroke="black" d="M105.38,-1049.53C105.38,-1041.9 105.38,-1033.15 105.38,-1024.81"/>
<polygon fill="black" stroke="black" points="108.88,-1024.96 105.38,-1014.96 101.88,-1024.96 108.88,-1024.96"/>
</g>
<!-- 7 -->
<g id="node8" class="node">
<title>7</title>
<polygon fill="aliceblue" stroke="none" points="183.38,-932 27.38,-932 27.38,-886.5 183.38,-886.5 183.38,-932"/>
<polygon fill="none" stroke="black" points="27.38,-886.5 27.38,-932 70.38,-932 70.38,-886.5 27.38,-886.5"/>
<text xml:space="preserve" text-anchor="start" x="40.62" y="-912.5" font-family="Linux libertine" font-size="10.00">relu</text>
<text xml:space="preserve" text-anchor="start" x="32.38" y="-899.75" font-family="Linux libertine" font-size="10.00">depth:1</text>
<polygon fill="none" stroke="black" points="70.38,-909.25 70.38,-932 114.12,-932 114.12,-909.25 70.38,-909.25"/>
<text xml:space="preserve" text-anchor="start" x="79.88" y="-917.5" font-family="Linux libertine" font-size="10.00">input:</text>
<polygon fill="none" stroke="black" points="114.12,-909.25 114.12,-932 183.38,-932 183.38,-909.25 114.12,-909.25"/>
<text xml:space="preserve" text-anchor="start" x="119.12" y="-917.5" font-family="Linux libertine" font-size="10.00">(1, 64, 3000) </text>
<polygon fill="none" stroke="black" points="70.38,-886.5 70.38,-909.25 114.12,-909.25 114.12,-886.5 70.38,-886.5"/>
<text xml:space="preserve" text-anchor="start" x="75.38" y="-894.75" font-family="Linux libertine" font-size="10.00">output: </text>
<polygon fill="none" stroke="black" points="114.12,-886.5 114.12,-909.25 183.38,-909.25 183.38,-886.5 114.12,-886.5"/>
<text xml:space="preserve" text-anchor="start" x="119.12" y="-894.75" font-family="Linux libertine" font-size="10.00">(1, 64, 3000) </text>
</g>
<!-- 6&#45;&gt;7 -->
<g id="edge7" class="edge">
<title>6&#45;&gt;7</title>
<path fill="none" stroke="black" d="M105.38,-968.03C105.38,-960.4 105.38,-951.65 105.38,-943.31"/>
<polygon fill="black" stroke="black" points="108.88,-943.46 105.38,-933.46 101.88,-943.46 108.88,-943.46"/>
</g>
<!-- 8 -->
<g id="node9" class="node">
<title>8</title>
<polygon fill="#c1ffc1" stroke="none" points="190.12,-850.5 20.62,-850.5 20.62,-805 190.12,-805 190.12,-850.5"/>
<polygon fill="none" stroke="black" points="20.62,-805 20.62,-850.5 77.12,-850.5 77.12,-805 20.62,-805"/>
<text xml:space="preserve" text-anchor="start" x="25.62" y="-831" font-family="Linux libertine" font-size="10.00">MaxPool1d</text>
<text xml:space="preserve" text-anchor="start" x="32.38" y="-818.25" font-family="Linux libertine" font-size="10.00">depth:1</text>
<polygon fill="none" stroke="black" points="77.12,-827.75 77.12,-850.5 120.88,-850.5 120.88,-827.75 77.12,-827.75"/>
<text xml:space="preserve" text-anchor="start" x="86.62" y="-836" font-family="Linux libertine" font-size="10.00">input:</text>
<polygon fill="none" stroke="black" points="120.88,-827.75 120.88,-850.5 190.12,-850.5 190.12,-827.75 120.88,-827.75"/>
<text xml:space="preserve" text-anchor="start" x="125.88" y="-836" font-family="Linux libertine" font-size="10.00">(1, 64, 3000) </text>
<polygon fill="none" stroke="black" points="77.12,-805 77.12,-827.75 120.88,-827.75 120.88,-805 77.12,-805"/>
<text xml:space="preserve" text-anchor="start" x="82.12" y="-813.25" font-family="Linux libertine" font-size="10.00">output: </text>
<polygon fill="none" stroke="black" points="120.88,-805 120.88,-827.75 190.12,-827.75 190.12,-805 120.88,-805"/>
<text xml:space="preserve" text-anchor="start" x="125.88" y="-813.25" font-family="Linux libertine" font-size="10.00">(1, 64, 1500) </text>
</g>
<!-- 7&#45;&gt;8 -->
<g id="edge8" class="edge">
<title>7&#45;&gt;8</title>
<path fill="none" stroke="black" d="M105.38,-886.53C105.38,-878.9 105.38,-870.15 105.38,-861.81"/>
<polygon fill="black" stroke="black" points="108.88,-861.96 105.38,-851.96 101.88,-861.96 108.88,-861.96"/>
</g>
<!-- 9 -->
<g id="node10" class="node">
<title>9</title>
<polygon fill="#c1ffc1" stroke="none" points="186,-769 24.75,-769 24.75,-723.5 186,-723.5 186,-769"/>
<polygon fill="none" stroke="black" points="24.75,-723.5 24.75,-769 67.75,-769 67.75,-723.5 24.75,-723.5"/>
<text xml:space="preserve" text-anchor="start" x="30.12" y="-749.5" font-family="Linux libertine" font-size="10.00">Conv1d</text>
<text xml:space="preserve" text-anchor="start" x="29.75" y="-736.75" font-family="Linux libertine" font-size="10.00">depth:1</text>
<polygon fill="none" stroke="black" points="67.75,-746.25 67.75,-769 111.5,-769 111.5,-746.25 67.75,-746.25"/>
<text xml:space="preserve" text-anchor="start" x="77.25" y="-754.5" font-family="Linux libertine" font-size="10.00">input:</text>
<polygon fill="none" stroke="black" points="111.5,-746.25 111.5,-769 186,-769 186,-746.25 111.5,-746.25"/>
<text xml:space="preserve" text-anchor="start" x="119.12" y="-754.5" font-family="Linux libertine" font-size="10.00">(1, 64, 1500) </text>
<polygon fill="none" stroke="black" points="67.75,-723.5 67.75,-746.25 111.5,-746.25 111.5,-723.5 67.75,-723.5"/>
<text xml:space="preserve" text-anchor="start" x="72.75" y="-731.75" font-family="Linux libertine" font-size="10.00">output: </text>
<polygon fill="none" stroke="black" points="111.5,-723.5 111.5,-746.25 186,-746.25 186,-723.5 111.5,-723.5"/>
<text xml:space="preserve" text-anchor="start" x="116.5" y="-731.75" font-family="Linux libertine" font-size="10.00">(1, 128, 1500) </text>
</g>
<!-- 8&#45;&gt;9 -->
<g id="edge9" class="edge">
<title>8&#45;&gt;9</title>
<path fill="none" stroke="black" d="M105.38,-805.03C105.38,-797.4 105.38,-788.65 105.38,-780.31"/>
<polygon fill="black" stroke="black" points="108.88,-780.46 105.38,-770.46 101.88,-780.46 108.88,-780.46"/>
</g>
<!-- 10 -->
<g id="node11" class="node">
<title>10</title>
<polygon fill="#c1ffc1" stroke="none" points="198.75,-687.5 12,-687.5 12,-642 198.75,-642 198.75,-687.5"/>
<polygon fill="none" stroke="black" points="12,-642 12,-687.5 80.5,-687.5 80.5,-642 12,-642"/>
<text xml:space="preserve" text-anchor="start" x="17" y="-668" font-family="Linux libertine" font-size="10.00">BatchNorm1d</text>
<text xml:space="preserve" text-anchor="start" x="29.75" y="-655.25" font-family="Linux libertine" font-size="10.00">depth:1</text>
<polygon fill="none" stroke="black" points="80.5,-664.75 80.5,-687.5 124.25,-687.5 124.25,-664.75 80.5,-664.75"/>
<text xml:space="preserve" text-anchor="start" x="90" y="-673" font-family="Linux libertine" font-size="10.00">input:</text>
<polygon fill="none" stroke="black" points="124.25,-664.75 124.25,-687.5 198.75,-687.5 198.75,-664.75 124.25,-664.75"/>
<text xml:space="preserve" text-anchor="start" x="129.25" y="-673" font-family="Linux libertine" font-size="10.00">(1, 128, 1500) </text>
<polygon fill="none" stroke="black" points="80.5,-642 80.5,-664.75 124.25,-664.75 124.25,-642 80.5,-642"/>
<text xml:space="preserve" text-anchor="start" x="85.5" y="-650.25" font-family="Linux libertine" font-size="10.00">output: </text>
<polygon fill="none" stroke="black" points="124.25,-642 124.25,-664.75 198.75,-664.75 198.75,-642 124.25,-642"/>
<text xml:space="preserve" text-anchor="start" x="129.25" y="-650.25" font-family="Linux libertine" font-size="10.00">(1, 128, 1500) </text>
</g>
<!-- 9&#45;&gt;10 -->
<g id="edge10" class="edge">
<title>9&#45;&gt;10</title>
<path fill="none" stroke="black" d="M105.38,-723.53C105.38,-715.9 105.38,-707.15 105.38,-698.81"/>
<polygon fill="black" stroke="black" points="108.88,-698.96 105.38,-688.96 101.88,-698.96 108.88,-698.96"/>
</g>
<!-- 11 -->
<g id="node12" class="node">
<title>11</title>
<polygon fill="aliceblue" stroke="none" points="186,-606 24.75,-606 24.75,-560.5 186,-560.5 186,-606"/>
<polygon fill="none" stroke="black" points="24.75,-560.5 24.75,-606 67.75,-606 67.75,-560.5 24.75,-560.5"/>
<text xml:space="preserve" text-anchor="start" x="38" y="-586.5" font-family="Linux libertine" font-size="10.00">relu</text>
<text xml:space="preserve" text-anchor="start" x="29.75" y="-573.75" font-family="Linux libertine" font-size="10.00">depth:1</text>
<polygon fill="none" stroke="black" points="67.75,-583.25 67.75,-606 111.5,-606 111.5,-583.25 67.75,-583.25"/>
<text xml:space="preserve" text-anchor="start" x="77.25" y="-591.5" font-family="Linux libertine" font-size="10.00">input:</text>
<polygon fill="none" stroke="black" points="111.5,-583.25 111.5,-606 186,-606 186,-583.25 111.5,-583.25"/>
<text xml:space="preserve" text-anchor="start" x="116.5" y="-591.5" font-family="Linux libertine" font-size="10.00">(1, 128, 1500) </text>
<polygon fill="none" stroke="black" points="67.75,-560.5 67.75,-583.25 111.5,-583.25 111.5,-560.5 67.75,-560.5"/>
<text xml:space="preserve" text-anchor="start" x="72.75" y="-568.75" font-family="Linux libertine" font-size="10.00">output: </text>
<polygon fill="none" stroke="black" points="111.5,-560.5 111.5,-583.25 186,-583.25 186,-560.5 111.5,-560.5"/>
<text xml:space="preserve" text-anchor="start" x="116.5" y="-568.75" font-family="Linux libertine" font-size="10.00">(1, 128, 1500) </text>
</g>
<!-- 10&#45;&gt;11 -->
<g id="edge11" class="edge">
<title>10&#45;&gt;11</title>
<path fill="none" stroke="black" d="M105.38,-642.03C105.38,-634.4 105.38,-625.65 105.38,-617.31"/>
<polygon fill="black" stroke="black" points="108.88,-617.46 105.38,-607.46 101.88,-617.46 108.88,-617.46"/>
</g>
<!-- 12 -->
<g id="node13" class="node">
<title>12</title>
<polygon fill="#c1ffc1" stroke="none" points="210.75,-524.5 0,-524.5 0,-479 210.75,-479 210.75,-524.5"/>
<polygon fill="none" stroke="black" points="0,-479 0,-524.5 92.5,-524.5 92.5,-479 0,-479"/>
<text xml:space="preserve" text-anchor="start" x="5" y="-505" font-family="Linux libertine" font-size="10.00">AdaptiveAvgPool1d</text>
<text xml:space="preserve" text-anchor="start" x="29.75" y="-492.25" font-family="Linux libertine" font-size="10.00">depth:1</text>
<polygon fill="none" stroke="black" points="92.5,-501.75 92.5,-524.5 136.25,-524.5 136.25,-501.75 92.5,-501.75"/>
<text xml:space="preserve" text-anchor="start" x="102" y="-510" font-family="Linux libertine" font-size="10.00">input:</text>
<polygon fill="none" stroke="black" points="136.25,-501.75 136.25,-524.5 210.75,-524.5 210.75,-501.75 136.25,-501.75"/>
<text xml:space="preserve" text-anchor="start" x="141.25" y="-510" font-family="Linux libertine" font-size="10.00">(1, 128, 1500) </text>
<polygon fill="none" stroke="black" points="92.5,-479 92.5,-501.75 136.25,-501.75 136.25,-479 92.5,-479"/>
<text xml:space="preserve" text-anchor="start" x="97.5" y="-487.25" font-family="Linux libertine" font-size="10.00">output: </text>
<polygon fill="none" stroke="black" points="136.25,-479 136.25,-501.75 210.75,-501.75 210.75,-479 136.25,-479"/>
<text xml:space="preserve" text-anchor="start" x="149.12" y="-487.25" font-family="Linux libertine" font-size="10.00">(1, 128, 1) </text>
</g>
<!-- 11&#45;&gt;12 -->
<g id="edge12" class="edge">
<title>11&#45;&gt;12</title>
<path fill="none" stroke="black" d="M105.38,-560.53C105.38,-552.9 105.38,-544.15 105.38,-535.81"/>
<polygon fill="black" stroke="black" points="108.88,-535.96 105.38,-525.96 101.88,-535.96 108.88,-535.96"/>
</g>
<!-- 13 -->
<g id="node14" class="node">
<title>13</title>
<polygon fill="aliceblue" stroke="none" points="179.25,-443 31.5,-443 31.5,-397.5 179.25,-397.5 179.25,-443"/>
<polygon fill="none" stroke="black" points="31.5,-397.5 31.5,-443 76.75,-443 76.75,-397.5 31.5,-397.5"/>
<text xml:space="preserve" text-anchor="start" x="36.5" y="-423.5" font-family="Linux libertine" font-size="10.00">squeeze</text>
<text xml:space="preserve" text-anchor="start" x="37.62" y="-410.75" font-family="Linux libertine" font-size="10.00">depth:1</text>
<polygon fill="none" stroke="black" points="76.75,-420.25 76.75,-443 120.5,-443 120.5,-420.25 76.75,-420.25"/>
<text xml:space="preserve" text-anchor="start" x="86.25" y="-428.5" font-family="Linux libertine" font-size="10.00">input:</text>
<polygon fill="none" stroke="black" points="120.5,-420.25 120.5,-443 179.25,-443 179.25,-420.25 120.5,-420.25"/>
<text xml:space="preserve" text-anchor="start" x="125.5" y="-428.5" font-family="Linux libertine" font-size="10.00">(1, 128, 1) </text>
<polygon fill="none" stroke="black" points="76.75,-397.5 76.75,-420.25 120.5,-420.25 120.5,-397.5 76.75,-397.5"/>
<text xml:space="preserve" text-anchor="start" x="81.75" y="-405.75" font-family="Linux libertine" font-size="10.00">output: </text>
<polygon fill="none" stroke="black" points="120.5,-397.5 120.5,-420.25 179.25,-420.25 179.25,-397.5 120.5,-397.5"/>
<text xml:space="preserve" text-anchor="start" x="131.12" y="-405.75" font-family="Linux libertine" font-size="10.00">(1, 128) </text>
</g>
<!-- 12&#45;&gt;13 -->
<g id="edge13" class="edge">
<title>12&#45;&gt;13</title>
<path fill="none" stroke="black" d="M105.38,-479.03C105.38,-471.4 105.38,-462.65 105.38,-454.31"/>
<polygon fill="black" stroke="black" points="108.88,-454.46 105.38,-444.46 101.88,-454.46 108.88,-454.46"/>
</g>
<!-- 14 -->
<g id="node15" class="node">
<title>14</title>
<polygon fill="#c1ffc1" stroke="none" points="172.5,-361.5 38.25,-361.5 38.25,-316 172.5,-316 172.5,-361.5"/>
<polygon fill="none" stroke="black" points="38.25,-316 38.25,-361.5 81.25,-361.5 81.25,-316 38.25,-316"/>
<text xml:space="preserve" text-anchor="start" x="46.25" y="-342" font-family="Linux libertine" font-size="10.00">Linear</text>
<text xml:space="preserve" text-anchor="start" x="43.25" y="-329.25" font-family="Linux libertine" font-size="10.00">depth:1</text>
<polygon fill="none" stroke="black" points="81.25,-338.75 81.25,-361.5 125,-361.5 125,-338.75 81.25,-338.75"/>
<text xml:space="preserve" text-anchor="start" x="90.75" y="-347" font-family="Linux libertine" font-size="10.00">input:</text>
<polygon fill="none" stroke="black" points="125,-338.75 125,-361.5 172.5,-361.5 172.5,-338.75 125,-338.75"/>
<text xml:space="preserve" text-anchor="start" x="130" y="-347" font-family="Linux libertine" font-size="10.00">(1, 128) </text>
<polygon fill="none" stroke="black" points="81.25,-316 81.25,-338.75 125,-338.75 125,-316 81.25,-316"/>
<text xml:space="preserve" text-anchor="start" x="86.25" y="-324.25" font-family="Linux libertine" font-size="10.00">output: </text>
<polygon fill="none" stroke="black" points="125,-316 125,-338.75 172.5,-338.75 172.5,-316 125,-316"/>
<text xml:space="preserve" text-anchor="start" x="132.62" y="-324.25" font-family="Linux libertine" font-size="10.00">(1, 64) </text>
</g>
<!-- 13&#45;&gt;14 -->
<g id="edge14" class="edge">
<title>13&#45;&gt;14</title>
<path fill="none" stroke="black" d="M105.38,-397.53C105.38,-389.9 105.38,-381.15 105.38,-372.81"/>
<polygon fill="black" stroke="black" points="108.88,-372.96 105.38,-362.96 101.88,-372.96 108.88,-372.96"/>
</g>
<!-- 15 -->
<g id="node16" class="node">
<title>15</title>
<polygon fill="aliceblue" stroke="none" points="169.88,-280 40.88,-280 40.88,-234.5 169.88,-234.5 169.88,-280"/>
<polygon fill="none" stroke="black" points="40.88,-234.5 40.88,-280 83.88,-280 83.88,-234.5 40.88,-234.5"/>
<text xml:space="preserve" text-anchor="start" x="54.12" y="-260.5" font-family="Linux libertine" font-size="10.00">relu</text>
<text xml:space="preserve" text-anchor="start" x="45.88" y="-247.75" font-family="Linux libertine" font-size="10.00">depth:1</text>
<polygon fill="none" stroke="black" points="83.88,-257.25 83.88,-280 127.62,-280 127.62,-257.25 83.88,-257.25"/>
<text xml:space="preserve" text-anchor="start" x="93.38" y="-265.5" font-family="Linux libertine" font-size="10.00">input:</text>
<polygon fill="none" stroke="black" points="127.62,-257.25 127.62,-280 169.88,-280 169.88,-257.25 127.62,-257.25"/>
<text xml:space="preserve" text-anchor="start" x="132.62" y="-265.5" font-family="Linux libertine" font-size="10.00">(1, 64) </text>
<polygon fill="none" stroke="black" points="83.88,-234.5 83.88,-257.25 127.62,-257.25 127.62,-234.5 83.88,-234.5"/>
<text xml:space="preserve" text-anchor="start" x="88.88" y="-242.75" font-family="Linux libertine" font-size="10.00">output: </text>
<polygon fill="none" stroke="black" points="127.62,-234.5 127.62,-257.25 169.88,-257.25 169.88,-234.5 127.62,-234.5"/>
<text xml:space="preserve" text-anchor="start" x="132.62" y="-242.75" font-family="Linux libertine" font-size="10.00">(1, 64) </text>
</g>
<!-- 14&#45;&gt;15 -->
<g id="edge15" class="edge">
<title>14&#45;&gt;15</title>
<path fill="none" stroke="black" d="M105.38,-316.03C105.38,-308.4 105.38,-299.65 105.38,-291.31"/>
<polygon fill="black" stroke="black" points="108.88,-291.46 105.38,-281.46 101.88,-291.46 108.88,-291.46"/>
</g>
<!-- 16 -->
<g id="node17" class="node">
<title>16</title>
<polygon fill="#c1ffc1" stroke="none" points="170.62,-198.5 40.12,-198.5 40.12,-153 170.62,-153 170.62,-198.5"/>
<polygon fill="none" stroke="black" points="40.12,-153 40.12,-198.5 84.62,-198.5 84.62,-153 40.12,-153"/>
<text xml:space="preserve" text-anchor="start" x="45.12" y="-179" font-family="Linux libertine" font-size="10.00">Dropout</text>
<text xml:space="preserve" text-anchor="start" x="45.88" y="-166.25" font-family="Linux libertine" font-size="10.00">depth:1</text>
<polygon fill="none" stroke="black" points="84.62,-175.75 84.62,-198.5 128.38,-198.5 128.38,-175.75 84.62,-175.75"/>
<text xml:space="preserve" text-anchor="start" x="94.12" y="-184" font-family="Linux libertine" font-size="10.00">input:</text>
<polygon fill="none" stroke="black" points="128.38,-175.75 128.38,-198.5 170.62,-198.5 170.62,-175.75 128.38,-175.75"/>
<text xml:space="preserve" text-anchor="start" x="133.38" y="-184" font-family="Linux libertine" font-size="10.00">(1, 64) </text>
<polygon fill="none" stroke="black" points="84.62,-153 84.62,-175.75 128.38,-175.75 128.38,-153 84.62,-153"/>
<text xml:space="preserve" text-anchor="start" x="89.62" y="-161.25" font-family="Linux libertine" font-size="10.00">output: </text>
<polygon fill="none" stroke="black" points="128.38,-153 128.38,-175.75 170.62,-175.75 170.62,-153 128.38,-153"/>
<text xml:space="preserve" text-anchor="start" x="133.38" y="-161.25" font-family="Linux libertine" font-size="10.00">(1, 64) </text>
</g>
<!-- 15&#45;&gt;16 -->
<g id="edge16" class="edge">
<title>15&#45;&gt;16</title>
<path fill="none" stroke="black" d="M105.38,-234.53C105.38,-226.9 105.38,-218.15 105.38,-209.81"/>
<polygon fill="black" stroke="black" points="108.88,-209.96 105.38,-199.96 101.88,-209.96 108.88,-209.96"/>
</g>
<!-- 17 -->
<g id="node18" class="node">
<title>17</title>
<polygon fill="#c1ffc1" stroke="none" points="169.88,-117 40.88,-117 40.88,-71.5 169.88,-71.5 169.88,-117"/>
<polygon fill="none" stroke="black" points="40.88,-71.5 40.88,-117 83.88,-117 83.88,-71.5 40.88,-71.5"/>
<text xml:space="preserve" text-anchor="start" x="48.88" y="-97.5" font-family="Linux libertine" font-size="10.00">Linear</text>
<text xml:space="preserve" text-anchor="start" x="45.88" y="-84.75" font-family="Linux libertine" font-size="10.00">depth:1</text>
<polygon fill="none" stroke="black" points="83.88,-94.25 83.88,-117 127.62,-117 127.62,-94.25 83.88,-94.25"/>
<text xml:space="preserve" text-anchor="start" x="93.38" y="-102.5" font-family="Linux libertine" font-size="10.00">input:</text>
<polygon fill="none" stroke="black" points="127.62,-94.25 127.62,-117 169.88,-117 169.88,-94.25 127.62,-94.25"/>
<text xml:space="preserve" text-anchor="start" x="132.62" y="-102.5" font-family="Linux libertine" font-size="10.00">(1, 64) </text>
<polygon fill="none" stroke="black" points="83.88,-71.5 83.88,-94.25 127.62,-94.25 127.62,-71.5 83.88,-71.5"/>
<text xml:space="preserve" text-anchor="start" x="88.88" y="-79.75" font-family="Linux libertine" font-size="10.00">output: </text>
<polygon fill="none" stroke="black" points="127.62,-71.5 127.62,-94.25 169.88,-94.25 169.88,-71.5 127.62,-71.5"/>
<text xml:space="preserve" text-anchor="start" x="135.25" y="-79.75" font-family="Linux libertine" font-size="10.00">(1, 1) </text>
</g>
<!-- 16&#45;&gt;17 -->
<g id="edge17" class="edge">
<title>16&#45;&gt;17</title>
<path fill="none" stroke="black" d="M105.38,-153.03C105.38,-145.4 105.38,-136.65 105.38,-128.31"/>
<polygon fill="black" stroke="black" points="108.88,-128.46 105.38,-118.46 101.88,-128.46 108.88,-128.46"/>
</g>
<!-- 18 -->
<g id="node19" class="node">
<title>18</title>
<polygon fill="lightyellow" stroke="none" points="156.25,-35.5 54.5,-35.5 54.5,0 156.25,0 156.25,-35.5"/>
<polygon fill="none" stroke="black" points="54.5,0 54.5,-35.5 122.25,-35.5 122.25,0 54.5,0"/>
<text xml:space="preserve" text-anchor="start" x="59.5" y="-21" font-family="Linux libertine" font-size="10.00">output&#45;tensor</text>
<text xml:space="preserve" text-anchor="start" x="71.88" y="-8.25" font-family="Linux libertine" font-size="10.00">depth:0</text>
<polygon fill="none" stroke="black" points="122.25,0 122.25,-35.5 156.25,-35.5 156.25,0 122.25,0"/>
<text xml:space="preserve" text-anchor="start" x="127.25" y="-14.62" font-family="Linux libertine" font-size="10.00">(1, 1)</text>
</g>
<!-- 17&#45;&gt;18 -->
<g id="edge18" class="edge">
<title>17&#45;&gt;18</title>
<path fill="none" stroke="black" d="M105.38,-71.7C105.38,-63.85 105.38,-54.85 105.38,-46.54"/>
<polygon fill="black" stroke="black" points="108.88,-46.56 105.38,-36.56 101.88,-46.56 108.88,-46.56"/>
</g>
</g>
</svg>
